<mxfile host="app.diagrams.net" modified="2021-06-01T21:22:48.771Z" agent="5.0 (Windows NT 10.0; Win64; x64) AppleWebKit/537.36 (KHTML, like Gecko) Chrome/90.0.4430.212 Safari/537.36" etag="k-U-DCBfcqxCyAld1H5c" version="14.5.8" type="github">
  <diagram id="W9qQhaeP2AJs4PxGi8Aj" name="Page-1">
    <mxGraphModel dx="2591" dy="772" grid="1" gridSize="10" guides="1" tooltips="1" connect="1" arrows="1" fold="1" page="1" pageScale="1" pageWidth="1169" pageHeight="827" math="0" shadow="0">
      <root>
        <mxCell id="0" />
        <mxCell id="1" parent="0" />
        <mxCell id="TamETq3UFSEYEg2kj5Xd-10" value="Presenter" style="verticalLabelPosition=middle;verticalAlign=bottom;html=1;shape=mxgraph.basic.rect;fillColor2=none;strokeWidth=1;size=20;indent=5;labelPosition=center;align=center;" parent="1" vertex="1">
          <mxGeometry x="680" y="100" width="260" height="604" as="geometry" />
        </mxCell>
        <mxCell id="TamETq3UFSEYEg2kj5Xd-9" value="Views" style="verticalLabelPosition=middle;verticalAlign=bottom;html=1;shape=mxgraph.basic.rect;fillColor2=none;strokeWidth=1;size=20;indent=5;labelPosition=center;align=center;" parent="1" vertex="1">
          <mxGeometry x="-250" y="100" width="910" height="604" as="geometry" />
        </mxCell>
        <mxCell id="TamETq3UFSEYEg2kj5Xd-31" style="edgeStyle=orthogonalEdgeStyle;rounded=0;orthogonalLoop=1;jettySize=auto;html=1;startArrow=none;startFill=0;" parent="1" source="TamETq3UFSEYEg2kj5Xd-1" target="TamETq3UFSEYEg2kj5Xd-40" edge="1">
          <mxGeometry relative="1" as="geometry">
            <Array as="points" />
          </mxGeometry>
        </mxCell>
        <mxCell id="TamETq3UFSEYEg2kj5Xd-32" value="Async Task" style="edgeLabel;html=1;align=center;verticalAlign=middle;resizable=0;points=[];" parent="TamETq3UFSEYEg2kj5Xd-31" vertex="1" connectable="0">
          <mxGeometry x="-0.7114" y="-3" relative="1" as="geometry">
            <mxPoint x="20" y="10" as="offset" />
          </mxGeometry>
        </mxCell>
        <mxCell id="TamETq3UFSEYEg2kj5Xd-80" style="edgeStyle=orthogonalEdgeStyle;rounded=0;orthogonalLoop=1;jettySize=auto;html=1;startArrow=none;startFill=0;fontColor=#000000;" parent="1" source="TamETq3UFSEYEg2kj5Xd-1" target="TamETq3UFSEYEg2kj5Xd-56" edge="1">
          <mxGeometry relative="1" as="geometry">
            <Array as="points">
              <mxPoint x="490" y="304" />
            </Array>
          </mxGeometry>
        </mxCell>
        <mxCell id="TamETq3UFSEYEg2kj5Xd-86" value="&lt;span style=&quot;font-size: 12px ; text-align: left ; background-color: rgb(248 , 249 , 250)&quot;&gt;Character&lt;/span&gt;" style="edgeLabel;html=1;align=center;verticalAlign=middle;resizable=0;points=[];fontColor=#000000;" parent="TamETq3UFSEYEg2kj5Xd-80" vertex="1" connectable="0">
          <mxGeometry x="0.416" y="3" relative="1" as="geometry">
            <mxPoint y="10" as="offset" />
          </mxGeometry>
        </mxCell>
        <mxCell id="TamETq3UFSEYEg2kj5Xd-81" style="edgeStyle=orthogonalEdgeStyle;rounded=0;orthogonalLoop=1;jettySize=auto;html=1;startArrow=none;startFill=0;fontColor=#000000;" parent="1" source="TamETq3UFSEYEg2kj5Xd-1" target="TamETq3UFSEYEg2kj5Xd-60" edge="1">
          <mxGeometry relative="1" as="geometry">
            <Array as="points">
              <mxPoint x="510" y="444" />
            </Array>
          </mxGeometry>
        </mxCell>
        <mxCell id="TamETq3UFSEYEg2kj5Xd-87" value="&lt;span style=&quot;font-size: 12px ; text-align: left ; background-color: rgb(248 , 249 , 250)&quot;&gt;Location&lt;/span&gt;" style="edgeLabel;html=1;align=center;verticalAlign=middle;resizable=0;points=[];fontColor=#000000;" parent="TamETq3UFSEYEg2kj5Xd-81" vertex="1" connectable="0">
          <mxGeometry x="0.6528" y="-2" relative="1" as="geometry">
            <mxPoint x="-9.83" y="12" as="offset" />
          </mxGeometry>
        </mxCell>
        <mxCell id="TamETq3UFSEYEg2kj5Xd-82" style="edgeStyle=orthogonalEdgeStyle;rounded=0;orthogonalLoop=1;jettySize=auto;html=1;startArrow=none;startFill=0;fontColor=#000000;" parent="1" source="TamETq3UFSEYEg2kj5Xd-1" target="TamETq3UFSEYEg2kj5Xd-64" edge="1">
          <mxGeometry relative="1" as="geometry">
            <Array as="points">
              <mxPoint x="530" y="584" />
            </Array>
          </mxGeometry>
        </mxCell>
        <mxCell id="TamETq3UFSEYEg2kj5Xd-88" value="&lt;span style=&quot;font-size: 12px ; text-align: left ; background-color: rgb(248 , 249 , 250)&quot;&gt;Episode&lt;/span&gt;" style="edgeLabel;html=1;align=center;verticalAlign=middle;resizable=0;points=[];fontColor=#000000;" parent="TamETq3UFSEYEg2kj5Xd-82" vertex="1" connectable="0">
          <mxGeometry x="0.8879" relative="1" as="geometry">
            <mxPoint x="15.17" y="16" as="offset" />
          </mxGeometry>
        </mxCell>
        <mxCell id="TamETq3UFSEYEg2kj5Xd-96" style="edgeStyle=orthogonalEdgeStyle;rounded=0;orthogonalLoop=1;jettySize=auto;html=1;startArrow=none;startFill=0;fontColor=#000000;" parent="1" source="TamETq3UFSEYEg2kj5Xd-1" target="TamETq3UFSEYEg2kj5Xd-89" edge="1">
          <mxGeometry relative="1" as="geometry">
            <Array as="points">
              <mxPoint x="220" y="184" />
              <mxPoint x="220" y="184" />
            </Array>
          </mxGeometry>
        </mxCell>
        <mxCell id="TamETq3UFSEYEg2kj5Xd-97" style="edgeStyle=orthogonalEdgeStyle;rounded=0;orthogonalLoop=1;jettySize=auto;html=1;startArrow=none;startFill=0;fontColor=#000000;" parent="1" source="TamETq3UFSEYEg2kj5Xd-1" target="TamETq3UFSEYEg2kj5Xd-93" edge="1">
          <mxGeometry relative="1" as="geometry">
            <Array as="points">
              <mxPoint x="30" y="199" />
              <mxPoint x="30" y="290" />
            </Array>
          </mxGeometry>
        </mxCell>
        <mxCell id="TamETq3UFSEYEg2kj5Xd-98" style="edgeStyle=orthogonalEdgeStyle;rounded=0;orthogonalLoop=1;jettySize=auto;html=1;startArrow=none;startFill=0;fontColor=#000000;" parent="1" source="TamETq3UFSEYEg2kj5Xd-1" target="TamETq3UFSEYEg2kj5Xd-94" edge="1">
          <mxGeometry relative="1" as="geometry">
            <Array as="points">
              <mxPoint x="50" y="214" />
              <mxPoint x="50" y="382" />
            </Array>
          </mxGeometry>
        </mxCell>
        <mxCell id="TamETq3UFSEYEg2kj5Xd-1" value="MainView" style="swimlane;fontStyle=1;childLayout=stackLayout;horizontal=1;startSize=26;fillColor=none;horizontalStack=0;resizeParent=1;resizeParentMax=0;resizeLast=0;collapsible=1;marginBottom=0;" parent="1" vertex="1">
          <mxGeometry x="440" y="173" width="140" height="52" as="geometry" />
        </mxCell>
        <mxCell id="TamETq3UFSEYEg2kj5Xd-44" value="+ handler: Handler" style="text;strokeColor=none;fillColor=none;align=left;verticalAlign=top;spacingLeft=4;spacingRight=4;overflow=hidden;rotatable=0;points=[[0,0.5],[1,0.5]];portConstraint=eastwest;" parent="TamETq3UFSEYEg2kj5Xd-1" vertex="1">
          <mxGeometry y="26" width="140" height="26" as="geometry" />
        </mxCell>
        <mxCell id="TamETq3UFSEYEg2kj5Xd-18" style="edgeStyle=orthogonalEdgeStyle;rounded=0;orthogonalLoop=1;jettySize=auto;html=1;" parent="1" source="TamETq3UFSEYEg2kj5Xd-40" target="TamETq3UFSEYEg2kj5Xd-13" edge="1">
          <mxGeometry relative="1" as="geometry" />
        </mxCell>
        <mxCell id="TamETq3UFSEYEg2kj5Xd-37" style="edgeStyle=orthogonalEdgeStyle;rounded=0;orthogonalLoop=1;jettySize=auto;html=1;startArrow=none;startFill=0;fontColor=#000000;" parent="1" source="TamETq3UFSEYEg2kj5Xd-13" target="TamETq3UFSEYEg2kj5Xd-33" edge="1">
          <mxGeometry relative="1" as="geometry" />
        </mxCell>
        <mxCell id="TamETq3UFSEYEg2kj5Xd-13" value="ModelFromConnection" style="swimlane;fontStyle=1;childLayout=stackLayout;horizontal=1;startSize=26;fillColor=none;horizontalStack=0;resizeParent=1;resizeParentMax=0;resizeLast=0;collapsible=1;marginBottom=0;" parent="1" vertex="1">
          <mxGeometry x="700" y="334" width="210" height="104" as="geometry" />
        </mxCell>
        <mxCell id="TamETq3UFSEYEg2kj5Xd-48" value="+ obtainCharacter(String): Character" style="text;strokeColor=none;fillColor=none;align=left;verticalAlign=top;spacingLeft=4;spacingRight=4;overflow=hidden;rotatable=0;points=[[0,0.5],[1,0.5]];portConstraint=eastwest;" parent="TamETq3UFSEYEg2kj5Xd-13" vertex="1">
          <mxGeometry y="26" width="210" height="26" as="geometry" />
        </mxCell>
        <mxCell id="TamETq3UFSEYEg2kj5Xd-49" value="+ obtainLocation(String): Location" style="text;strokeColor=none;fillColor=none;align=left;verticalAlign=top;spacingLeft=4;spacingRight=4;overflow=hidden;rotatable=0;points=[[0,0.5],[1,0.5]];portConstraint=eastwest;" parent="TamETq3UFSEYEg2kj5Xd-13" vertex="1">
          <mxGeometry y="52" width="210" height="26" as="geometry" />
        </mxCell>
        <mxCell id="TamETq3UFSEYEg2kj5Xd-50" value="+ obtainEpisode(String): Episode" style="text;strokeColor=none;fillColor=none;align=left;verticalAlign=top;spacingLeft=4;spacingRight=4;overflow=hidden;rotatable=0;points=[[0,0.5],[1,0.5]];portConstraint=eastwest;" parent="TamETq3UFSEYEg2kj5Xd-13" vertex="1">
          <mxGeometry y="78" width="210" height="26" as="geometry" />
        </mxCell>
        <mxCell id="TamETq3UFSEYEg2kj5Xd-19" value="Model" style="verticalLabelPosition=middle;verticalAlign=bottom;html=1;shape=mxgraph.basic.rect;fillColor2=none;strokeWidth=1;size=20;indent=5;labelPosition=center;align=center;" parent="1" vertex="1">
          <mxGeometry x="960" y="100" width="190" height="604" as="geometry" />
        </mxCell>
        <mxCell id="TamETq3UFSEYEg2kj5Xd-20" value="Character" style="swimlane;fontStyle=1;childLayout=stackLayout;horizontal=1;startSize=26;fillColor=none;horizontalStack=0;resizeParent=1;resizeParentMax=0;resizeLast=0;collapsible=1;marginBottom=0;" parent="1" vertex="1">
          <mxGeometry x="990" y="304" width="140" height="52" as="geometry" />
        </mxCell>
        <mxCell id="TamETq3UFSEYEg2kj5Xd-24" value="Location" style="swimlane;fontStyle=1;childLayout=stackLayout;horizontal=1;startSize=26;fillColor=none;horizontalStack=0;resizeParent=1;resizeParentMax=0;resizeLast=0;collapsible=1;marginBottom=0;" parent="1" vertex="1">
          <mxGeometry x="990" y="382" width="140" height="52" as="geometry" />
        </mxCell>
        <mxCell id="TamETq3UFSEYEg2kj5Xd-25" value="Episode" style="swimlane;fontStyle=1;childLayout=stackLayout;horizontal=1;startSize=26;fillColor=none;horizontalStack=0;resizeParent=1;resizeParentMax=0;resizeLast=0;collapsible=1;marginBottom=0;" parent="1" vertex="1">
          <mxGeometry x="990" y="460" width="140" height="52" as="geometry" />
        </mxCell>
        <mxCell id="TamETq3UFSEYEg2kj5Xd-27" style="edgeStyle=orthogonalEdgeStyle;rounded=0;orthogonalLoop=1;jettySize=auto;html=1;startArrow=none;startFill=0;" parent="1" source="TamETq3UFSEYEg2kj5Xd-48" target="TamETq3UFSEYEg2kj5Xd-20" edge="1">
          <mxGeometry relative="1" as="geometry">
            <mxPoint x="805" y="419" as="sourcePoint" />
            <Array as="points">
              <mxPoint x="970" y="373" />
              <mxPoint x="970" y="330" />
            </Array>
          </mxGeometry>
        </mxCell>
        <mxCell id="TamETq3UFSEYEg2kj5Xd-28" style="edgeStyle=orthogonalEdgeStyle;rounded=0;orthogonalLoop=1;jettySize=auto;html=1;startArrow=none;startFill=0;" parent="1" source="TamETq3UFSEYEg2kj5Xd-49" target="TamETq3UFSEYEg2kj5Xd-24" edge="1">
          <mxGeometry relative="1" as="geometry">
            <mxPoint x="805" y="419" as="sourcePoint" />
            <Array as="points">
              <mxPoint x="1010" y="399" />
              <mxPoint x="1010" y="412" />
            </Array>
          </mxGeometry>
        </mxCell>
        <mxCell id="TamETq3UFSEYEg2kj5Xd-29" style="edgeStyle=orthogonalEdgeStyle;rounded=0;orthogonalLoop=1;jettySize=auto;html=1;startArrow=none;startFill=0;" parent="1" target="TamETq3UFSEYEg2kj5Xd-25" edge="1">
          <mxGeometry relative="1" as="geometry">
            <mxPoint x="910" y="425" as="sourcePoint" />
            <Array as="points">
              <mxPoint x="970" y="425" />
              <mxPoint x="970" y="486" />
            </Array>
          </mxGeometry>
        </mxCell>
        <mxCell id="TamETq3UFSEYEg2kj5Xd-33" value="ApiConnection" style="swimlane;fontStyle=1;childLayout=stackLayout;horizontal=1;startSize=26;fillColor=none;horizontalStack=0;resizeParent=1;resizeParentMax=0;resizeLast=0;collapsible=1;marginBottom=0;" parent="1" vertex="1">
          <mxGeometry x="700" y="498" width="210" height="104" as="geometry" />
        </mxCell>
        <mxCell id="TamETq3UFSEYEg2kj5Xd-51" value="+ getJson(String): String" style="text;strokeColor=none;fillColor=none;align=left;verticalAlign=top;spacingLeft=4;spacingRight=4;overflow=hidden;rotatable=0;points=[[0,0.5],[1,0.5]];portConstraint=eastwest;" parent="TamETq3UFSEYEg2kj5Xd-33" vertex="1">
          <mxGeometry y="26" width="210" height="26" as="geometry" />
        </mxCell>
        <mxCell id="TamETq3UFSEYEg2kj5Xd-38" value="- loadJson(Request): String" style="text;strokeColor=none;fillColor=none;align=left;verticalAlign=top;spacingLeft=4;spacingRight=4;overflow=hidden;rotatable=0;points=[[0,0.5],[1,0.5]];portConstraint=eastwest;" parent="TamETq3UFSEYEg2kj5Xd-33" vertex="1">
          <mxGeometry y="52" width="210" height="26" as="geometry" />
        </mxCell>
        <mxCell id="TamETq3UFSEYEg2kj5Xd-35" value="+ getImage(String): Bitmap" style="text;strokeColor=none;fillColor=none;align=left;verticalAlign=top;spacingLeft=4;spacingRight=4;overflow=hidden;rotatable=0;points=[[0,0.5],[1,0.5]];portConstraint=eastwest;" parent="TamETq3UFSEYEg2kj5Xd-33" vertex="1">
          <mxGeometry y="78" width="210" height="26" as="geometry" />
        </mxCell>
        <mxCell id="TamETq3UFSEYEg2kj5Xd-40" value="QueryManager" style="swimlane;fontStyle=1;align=center;verticalAlign=top;childLayout=stackLayout;horizontal=1;startSize=26;horizontalStack=0;resizeParent=1;resizeParentMax=0;resizeLast=0;collapsible=1;marginBottom=0;fontColor=#000000;" parent="1" vertex="1">
          <mxGeometry x="705" y="117" width="200" height="164" as="geometry" />
        </mxCell>
        <mxCell id="TamETq3UFSEYEg2kj5Xd-41" value="+ - queryHistory: List&lt;String&gt;" style="text;strokeColor=none;fillColor=none;align=left;verticalAlign=top;spacingLeft=4;spacingRight=4;overflow=hidden;rotatable=0;points=[[0,0.5],[1,0.5]];portConstraint=eastwest;" parent="TamETq3UFSEYEg2kj5Xd-40" vertex="1">
          <mxGeometry y="26" width="200" height="26" as="geometry" />
        </mxCell>
        <mxCell id="TamETq3UFSEYEg2kj5Xd-45" value="+ - queryList: List&lt;String&gt;" style="text;strokeColor=none;fillColor=none;align=left;verticalAlign=top;spacingLeft=4;spacingRight=4;overflow=hidden;rotatable=0;points=[[0,0.5],[1,0.5]];portConstraint=eastwest;" parent="TamETq3UFSEYEg2kj5Xd-40" vertex="1">
          <mxGeometry y="52" width="200" height="26" as="geometry" />
        </mxCell>
        <mxCell id="TamETq3UFSEYEg2kj5Xd-42" value="" style="line;strokeWidth=1;fillColor=none;align=left;verticalAlign=middle;spacingTop=-1;spacingLeft=3;spacingRight=3;rotatable=0;labelPosition=right;points=[];portConstraint=eastwest;" parent="TamETq3UFSEYEg2kj5Xd-40" vertex="1">
          <mxGeometry y="78" width="200" height="8" as="geometry" />
        </mxCell>
        <mxCell id="TamETq3UFSEYEg2kj5Xd-43" value="+ getCharacter(String): Character" style="text;strokeColor=none;fillColor=none;align=left;verticalAlign=top;spacingLeft=4;spacingRight=4;overflow=hidden;rotatable=0;points=[[0,0.5],[1,0.5]];portConstraint=eastwest;" parent="TamETq3UFSEYEg2kj5Xd-40" vertex="1">
          <mxGeometry y="86" width="200" height="26" as="geometry" />
        </mxCell>
        <mxCell id="TamETq3UFSEYEg2kj5Xd-46" value="+ getLocation(String): Location" style="text;strokeColor=none;fillColor=none;align=left;verticalAlign=top;spacingLeft=4;spacingRight=4;overflow=hidden;rotatable=0;points=[[0,0.5],[1,0.5]];portConstraint=eastwest;" parent="TamETq3UFSEYEg2kj5Xd-40" vertex="1">
          <mxGeometry y="112" width="200" height="26" as="geometry" />
        </mxCell>
        <mxCell id="TamETq3UFSEYEg2kj5Xd-47" value="+ getEpisode(String): Episode" style="text;strokeColor=none;fillColor=none;align=left;verticalAlign=top;spacingLeft=4;spacingRight=4;overflow=hidden;rotatable=0;points=[[0,0.5],[1,0.5]];portConstraint=eastwest;" parent="TamETq3UFSEYEg2kj5Xd-40" vertex="1">
          <mxGeometry y="138" width="200" height="26" as="geometry" />
        </mxCell>
        <mxCell id="TamETq3UFSEYEg2kj5Xd-83" style="edgeStyle=orthogonalEdgeStyle;rounded=0;orthogonalLoop=1;jettySize=auto;html=1;startArrow=none;startFill=0;fontColor=#000000;" parent="1" source="TamETq3UFSEYEg2kj5Xd-56" target="TamETq3UFSEYEg2kj5Xd-68" edge="1">
          <mxGeometry relative="1" as="geometry" />
        </mxCell>
        <mxCell id="TamETq3UFSEYEg2kj5Xd-56" value="CharacterAdapter" style="swimlane;fontStyle=1;align=center;verticalAlign=top;childLayout=stackLayout;horizontal=1;startSize=26;horizontalStack=0;resizeParent=1;resizeParentMax=0;resizeLast=0;collapsible=1;marginBottom=0;fontColor=#000000;" parent="1" vertex="1">
          <mxGeometry x="280" y="291" width="160" height="86" as="geometry" />
        </mxCell>
        <mxCell id="TamETq3UFSEYEg2kj5Xd-57" value="+ field: type" style="text;strokeColor=none;fillColor=none;align=left;verticalAlign=top;spacingLeft=4;spacingRight=4;overflow=hidden;rotatable=0;points=[[0,0.5],[1,0.5]];portConstraint=eastwest;" parent="TamETq3UFSEYEg2kj5Xd-56" vertex="1">
          <mxGeometry y="26" width="160" height="26" as="geometry" />
        </mxCell>
        <mxCell id="TamETq3UFSEYEg2kj5Xd-58" value="" style="line;strokeWidth=1;fillColor=none;align=left;verticalAlign=middle;spacingTop=-1;spacingLeft=3;spacingRight=3;rotatable=0;labelPosition=right;points=[];portConstraint=eastwest;" parent="TamETq3UFSEYEg2kj5Xd-56" vertex="1">
          <mxGeometry y="52" width="160" height="8" as="geometry" />
        </mxCell>
        <mxCell id="TamETq3UFSEYEg2kj5Xd-59" value="+ method(type): type" style="text;strokeColor=none;fillColor=none;align=left;verticalAlign=top;spacingLeft=4;spacingRight=4;overflow=hidden;rotatable=0;points=[[0,0.5],[1,0.5]];portConstraint=eastwest;" parent="TamETq3UFSEYEg2kj5Xd-56" vertex="1">
          <mxGeometry y="60" width="160" height="26" as="geometry" />
        </mxCell>
        <mxCell id="TamETq3UFSEYEg2kj5Xd-84" style="edgeStyle=orthogonalEdgeStyle;rounded=0;orthogonalLoop=1;jettySize=auto;html=1;startArrow=none;startFill=0;fontColor=#000000;" parent="1" source="TamETq3UFSEYEg2kj5Xd-60" target="TamETq3UFSEYEg2kj5Xd-72" edge="1">
          <mxGeometry relative="1" as="geometry" />
        </mxCell>
        <mxCell id="TamETq3UFSEYEg2kj5Xd-60" value="LocationAdapter" style="swimlane;fontStyle=1;align=center;verticalAlign=top;childLayout=stackLayout;horizontal=1;startSize=26;horizontalStack=0;resizeParent=1;resizeParentMax=0;resizeLast=0;collapsible=1;marginBottom=0;fontColor=#000000;" parent="1" vertex="1">
          <mxGeometry x="280" y="430" width="160" height="86" as="geometry" />
        </mxCell>
        <mxCell id="TamETq3UFSEYEg2kj5Xd-61" value="+ field: type" style="text;strokeColor=none;fillColor=none;align=left;verticalAlign=top;spacingLeft=4;spacingRight=4;overflow=hidden;rotatable=0;points=[[0,0.5],[1,0.5]];portConstraint=eastwest;" parent="TamETq3UFSEYEg2kj5Xd-60" vertex="1">
          <mxGeometry y="26" width="160" height="26" as="geometry" />
        </mxCell>
        <mxCell id="TamETq3UFSEYEg2kj5Xd-62" value="" style="line;strokeWidth=1;fillColor=none;align=left;verticalAlign=middle;spacingTop=-1;spacingLeft=3;spacingRight=3;rotatable=0;labelPosition=right;points=[];portConstraint=eastwest;" parent="TamETq3UFSEYEg2kj5Xd-60" vertex="1">
          <mxGeometry y="52" width="160" height="8" as="geometry" />
        </mxCell>
        <mxCell id="TamETq3UFSEYEg2kj5Xd-63" value="+ method(type): type" style="text;strokeColor=none;fillColor=none;align=left;verticalAlign=top;spacingLeft=4;spacingRight=4;overflow=hidden;rotatable=0;points=[[0,0.5],[1,0.5]];portConstraint=eastwest;" parent="TamETq3UFSEYEg2kj5Xd-60" vertex="1">
          <mxGeometry y="60" width="160" height="26" as="geometry" />
        </mxCell>
        <mxCell id="TamETq3UFSEYEg2kj5Xd-85" style="edgeStyle=orthogonalEdgeStyle;rounded=0;orthogonalLoop=1;jettySize=auto;html=1;startArrow=none;startFill=0;fontColor=#000000;" parent="1" source="TamETq3UFSEYEg2kj5Xd-64" target="TamETq3UFSEYEg2kj5Xd-76" edge="1">
          <mxGeometry relative="1" as="geometry" />
        </mxCell>
        <mxCell id="TamETq3UFSEYEg2kj5Xd-64" value="EpisodeAdapter" style="swimlane;fontStyle=1;align=center;verticalAlign=top;childLayout=stackLayout;horizontal=1;startSize=26;horizontalStack=0;resizeParent=1;resizeParentMax=0;resizeLast=0;collapsible=1;marginBottom=0;fontColor=#000000;" parent="1" vertex="1">
          <mxGeometry x="280" y="574" width="160" height="86" as="geometry" />
        </mxCell>
        <mxCell id="TamETq3UFSEYEg2kj5Xd-65" value="+ field: type" style="text;strokeColor=none;fillColor=none;align=left;verticalAlign=top;spacingLeft=4;spacingRight=4;overflow=hidden;rotatable=0;points=[[0,0.5],[1,0.5]];portConstraint=eastwest;" parent="TamETq3UFSEYEg2kj5Xd-64" vertex="1">
          <mxGeometry y="26" width="160" height="26" as="geometry" />
        </mxCell>
        <mxCell id="TamETq3UFSEYEg2kj5Xd-66" value="" style="line;strokeWidth=1;fillColor=none;align=left;verticalAlign=middle;spacingTop=-1;spacingLeft=3;spacingRight=3;rotatable=0;labelPosition=right;points=[];portConstraint=eastwest;" parent="TamETq3UFSEYEg2kj5Xd-64" vertex="1">
          <mxGeometry y="52" width="160" height="8" as="geometry" />
        </mxCell>
        <mxCell id="TamETq3UFSEYEg2kj5Xd-67" value="+ method(type): type" style="text;strokeColor=none;fillColor=none;align=left;verticalAlign=top;spacingLeft=4;spacingRight=4;overflow=hidden;rotatable=0;points=[[0,0.5],[1,0.5]];portConstraint=eastwest;" parent="TamETq3UFSEYEg2kj5Xd-64" vertex="1">
          <mxGeometry y="60" width="160" height="26" as="geometry" />
        </mxCell>
        <mxCell id="TamETq3UFSEYEg2kj5Xd-68" value="CharacterCardItem" style="swimlane;fontStyle=1;align=center;verticalAlign=top;childLayout=stackLayout;horizontal=1;startSize=26;horizontalStack=0;resizeParent=1;resizeParentMax=0;resizeLast=0;collapsible=1;marginBottom=0;fontColor=#000000;" parent="1" vertex="1">
          <mxGeometry x="90" y="291" width="160" height="86" as="geometry" />
        </mxCell>
        <mxCell id="TamETq3UFSEYEg2kj5Xd-69" value="+ field: type" style="text;strokeColor=none;fillColor=none;align=left;verticalAlign=top;spacingLeft=4;spacingRight=4;overflow=hidden;rotatable=0;points=[[0,0.5],[1,0.5]];portConstraint=eastwest;" parent="TamETq3UFSEYEg2kj5Xd-68" vertex="1">
          <mxGeometry y="26" width="160" height="26" as="geometry" />
        </mxCell>
        <mxCell id="TamETq3UFSEYEg2kj5Xd-70" value="" style="line;strokeWidth=1;fillColor=none;align=left;verticalAlign=middle;spacingTop=-1;spacingLeft=3;spacingRight=3;rotatable=0;labelPosition=right;points=[];portConstraint=eastwest;" parent="TamETq3UFSEYEg2kj5Xd-68" vertex="1">
          <mxGeometry y="52" width="160" height="8" as="geometry" />
        </mxCell>
        <mxCell id="TamETq3UFSEYEg2kj5Xd-71" value="+ method(type): type" style="text;strokeColor=none;fillColor=none;align=left;verticalAlign=top;spacingLeft=4;spacingRight=4;overflow=hidden;rotatable=0;points=[[0,0.5],[1,0.5]];portConstraint=eastwest;" parent="TamETq3UFSEYEg2kj5Xd-68" vertex="1">
          <mxGeometry y="60" width="160" height="26" as="geometry" />
        </mxCell>
        <mxCell id="TamETq3UFSEYEg2kj5Xd-72" value="LocationCardItem" style="swimlane;fontStyle=1;align=center;verticalAlign=top;childLayout=stackLayout;horizontal=1;startSize=26;horizontalStack=0;resizeParent=1;resizeParentMax=0;resizeLast=0;collapsible=1;marginBottom=0;fontColor=#000000;" parent="1" vertex="1">
          <mxGeometry x="90" y="430" width="160" height="86" as="geometry" />
        </mxCell>
        <mxCell id="TamETq3UFSEYEg2kj5Xd-73" value="+ field: type" style="text;strokeColor=none;fillColor=none;align=left;verticalAlign=top;spacingLeft=4;spacingRight=4;overflow=hidden;rotatable=0;points=[[0,0.5],[1,0.5]];portConstraint=eastwest;" parent="TamETq3UFSEYEg2kj5Xd-72" vertex="1">
          <mxGeometry y="26" width="160" height="26" as="geometry" />
        </mxCell>
        <mxCell id="TamETq3UFSEYEg2kj5Xd-74" value="" style="line;strokeWidth=1;fillColor=none;align=left;verticalAlign=middle;spacingTop=-1;spacingLeft=3;spacingRight=3;rotatable=0;labelPosition=right;points=[];portConstraint=eastwest;" parent="TamETq3UFSEYEg2kj5Xd-72" vertex="1">
          <mxGeometry y="52" width="160" height="8" as="geometry" />
        </mxCell>
        <mxCell id="TamETq3UFSEYEg2kj5Xd-75" value="+ method(type): type" style="text;strokeColor=none;fillColor=none;align=left;verticalAlign=top;spacingLeft=4;spacingRight=4;overflow=hidden;rotatable=0;points=[[0,0.5],[1,0.5]];portConstraint=eastwest;" parent="TamETq3UFSEYEg2kj5Xd-72" vertex="1">
          <mxGeometry y="60" width="160" height="26" as="geometry" />
        </mxCell>
        <mxCell id="TamETq3UFSEYEg2kj5Xd-76" value="EpisodeCardItem" style="swimlane;fontStyle=1;align=center;verticalAlign=top;childLayout=stackLayout;horizontal=1;startSize=26;horizontalStack=0;resizeParent=1;resizeParentMax=0;resizeLast=0;collapsible=1;marginBottom=0;fontColor=#000000;" parent="1" vertex="1">
          <mxGeometry x="90" y="574" width="160" height="86" as="geometry" />
        </mxCell>
        <mxCell id="TamETq3UFSEYEg2kj5Xd-77" value="+ field: type" style="text;strokeColor=none;fillColor=none;align=left;verticalAlign=top;spacingLeft=4;spacingRight=4;overflow=hidden;rotatable=0;points=[[0,0.5],[1,0.5]];portConstraint=eastwest;" parent="TamETq3UFSEYEg2kj5Xd-76" vertex="1">
          <mxGeometry y="26" width="160" height="26" as="geometry" />
        </mxCell>
        <mxCell id="TamETq3UFSEYEg2kj5Xd-78" value="" style="line;strokeWidth=1;fillColor=none;align=left;verticalAlign=middle;spacingTop=-1;spacingLeft=3;spacingRight=3;rotatable=0;labelPosition=right;points=[];portConstraint=eastwest;" parent="TamETq3UFSEYEg2kj5Xd-76" vertex="1">
          <mxGeometry y="52" width="160" height="8" as="geometry" />
        </mxCell>
        <mxCell id="TamETq3UFSEYEg2kj5Xd-79" value="+ method(type): type" style="text;strokeColor=none;fillColor=none;align=left;verticalAlign=top;spacingLeft=4;spacingRight=4;overflow=hidden;rotatable=0;points=[[0,0.5],[1,0.5]];portConstraint=eastwest;" parent="TamETq3UFSEYEg2kj5Xd-76" vertex="1">
          <mxGeometry y="60" width="160" height="26" as="geometry" />
        </mxCell>
        <mxCell id="TamETq3UFSEYEg2kj5Xd-89" value="CharacterDetailedView" style="swimlane;fontStyle=1;childLayout=stackLayout;horizontal=1;startSize=26;fillColor=none;horizontalStack=0;resizeParent=1;resizeParentMax=0;resizeLast=0;collapsible=1;marginBottom=0;fontColor=#000000;" parent="1" vertex="1">
          <mxGeometry x="-200" y="173" width="190" height="52" as="geometry" />
        </mxCell>
        <mxCell id="TamETq3UFSEYEg2kj5Xd-93" value="LocationDetailedView" style="swimlane;fontStyle=1;childLayout=stackLayout;horizontal=1;startSize=26;fillColor=none;horizontalStack=0;resizeParent=1;resizeParentMax=0;resizeLast=0;collapsible=1;marginBottom=0;fontColor=#000000;" parent="1" vertex="1">
          <mxGeometry x="-200" y="264" width="190" height="52" as="geometry" />
        </mxCell>
        <mxCell id="TamETq3UFSEYEg2kj5Xd-94" value="EpisodeDetailedView" style="swimlane;fontStyle=1;childLayout=stackLayout;horizontal=1;startSize=26;fillColor=none;horizontalStack=0;resizeParent=1;resizeParentMax=0;resizeLast=0;collapsible=1;marginBottom=0;fontColor=#000000;" parent="1" vertex="1">
          <mxGeometry x="-200" y="356" width="190" height="52" as="geometry" />
        </mxCell>
      </root>
    </mxGraphModel>
  </diagram>
</mxfile>
